<?xml version="1.0" encoding="UTF-8" standalone="no"?>
<!DOCTYPE svg PUBLIC "-//W3C//DTD SVG 1.1//EN" "http://www.w3.org/Graphics/SVG/1.1/DTD/svg11.dtd">
<svg version="1.1" xmlns="http://www.w3.org/2000/svg" xmlns:xlink="http://www.w3.org/1999/xlink" preserveAspectRatio="xMidYMid meet" viewBox="0 0 290 200" width="290" height="200"><defs><path d="M92.52 145.26L89.12 147.26L84.89 143.07L87.82 123.01L67.89 115.01L36.22 144.15L32.49 144.15L28.55 140.67L96.22 75.67L102.22 80.34L92.52 145.26ZM89.31 115.12L93.97 88.12L72.66 108.8L89.31 115.12Z" id="b2oN8OuVqf"></path><path d="M105.66 100.83L109.38 104.55L109.38 107.12L125.09 107.12L129.38 112.69L126.38 145.4L123.95 147.26L120.09 143.26L122.23 114.4L108.23 114.4L103.8 145.4L101.23 147.26L96.95 143.26L102.95 100.83L105.66 100.83Z" id="b1p7BcgKL"></path><path d="M153.32 187.35L132.75 157.63L133.89 153.92L138.98 153.92L151.26 172.97L154.12 146.63L135.06 146.63L132.03 143.77L135.06 107.06L161.78 107.06L164.49 110.35L156.75 186.63L156.75 186.63L153.32 187.35ZM154.75 139.63L157.18 114.35L141.75 114.35L139.46 139.63L139.46 139.63L154.75 139.63Z" id="c2CQaJIjaD"></path><path d="M175.28 78.49L178.42 82.35L172.99 146.92L169.56 148.2L165.85 144.35L171.99 78.49L175.28 78.49Z" id="akBtFayul"></path><path d="M212.42 127.49L209.85 130.35L185.56 130.35L184.85 139.63L208.13 139.63L211.7 143.49L210.28 146.63L181.28 146.63L177.85 143.49L181.28 107.06L208.7 107.06L213.28 111.35L212.42 127.49ZM186.28 123.52L205.88 123.52L206.7 114.06L187.28 114.06L186.28 123.52Z" id="g88yW7A2Vu"></path><path d="M250.73 104.17L249.16 105.89L225.16 106.32L224.3 120.03L246.88 114.06L251.45 120.46L208.09 168.34L205.3 168.34L201.45 164.89L238.45 124.32L220.59 128.75L217.02 125.75L218.45 99.32L247.3 99.32L250.73 104.17Z" id="dm5mWo3iE"></path><path d="M92.97 22.61L95.57 24.61L84.17 65.21L114.97 65.21L116.97 68.01L114.97 73.61L73.17 73.61L70.97 71.41L84.17 22.61L92.97 22.61Z" id="a33VX9YA4u"></path><path d="M132.57 46.81L134.57 49.61L129.97 73.61L123.17 73.61L120.97 71.41L126.17 46.81L132.57 46.81Z" id="c5VKN3rIUA"></path><path d="M128.17 33.51L136.17 33.51L138.29 35.63L136.92 41.63L129.38 41.63L126.92 39.63L128.17 33.51Z" id="dhIyMss7a"></path><path d="M107.68 98.22L110.3 92.35L153.65 91.72L157.6 73.61L139.46 73.61L136.68 70.6L141.43 46.81L169.05 46.81L172.13 49.97L160.93 100.83L110.3 100.83L110.3 100.83L107.68 98.22ZM162.72 55.46L150.1 55.46L148.26 64.96L161.1 64.96L161.1 64.96L162.72 55.46Z" id="gvaqSQwnx"></path><path d="M193.09 22.95L195.59 25.57L190.34 46.2L204.59 46.2L208.09 49.7L203.34 73.32L197.34 73.32L194.09 70.45L196.97 55.1L186.84 55.1L182.47 73.32L176.22 73.32L173.97 71.2L183.22 23.57L193.09 22.95Z" id="aCfXCTw7q"></path><path d="M225.03 46.13L229.28 24.26L235.7 24.26L238.23 25.91L234.33 46.13L245.03 46.13L247.65 48.76L245.03 54.88L232.65 54.88L229.28 73.82L222.4 73.82L219.63 70.76L222.85 54.51L213.4 54.51L210.9 52.13L212.65 46.13L225.03 46.13Z" id="d1pIPGH5j2"></path></defs><g><g><g><g><use xlink:href="#b2oN8OuVqf" opacity="1" fill="#e70101" fill-opacity="1"></use><g><use xlink:href="#b2oN8OuVqf" opacity="1" fill-opacity="0" stroke="#e70101" stroke-width="1" stroke-opacity="1"></use></g></g><g><use xlink:href="#b1p7BcgKL" opacity="1" fill="#e70101" fill-opacity="1"></use><g><use xlink:href="#b1p7BcgKL" opacity="1" fill-opacity="0" stroke="#e70101" stroke-width="1" stroke-opacity="1"></use></g></g><g><use xlink:href="#c2CQaJIjaD" opacity="1" fill="#e70101" fill-opacity="1"></use><g><use xlink:href="#c2CQaJIjaD" opacity="1" fill-opacity="0" stroke="#e70101" stroke-width="1" stroke-opacity="1"></use></g></g><g><use xlink:href="#akBtFayul" opacity="1" fill="#e70101" fill-opacity="1"></use><g><use xlink:href="#akBtFayul" opacity="1" fill-opacity="0" stroke="#e70101" stroke-width="1" stroke-opacity="1"></use></g></g><g><use xlink:href="#g88yW7A2Vu" opacity="1" fill="#e70101" fill-opacity="1"></use><g><use xlink:href="#g88yW7A2Vu" opacity="1" fill-opacity="0" stroke="#e70101" stroke-width="1" stroke-opacity="1"></use></g></g><g><use xlink:href="#dm5mWo3iE" opacity="1" fill="#e70101" fill-opacity="1"></use><g><use xlink:href="#dm5mWo3iE" opacity="1" fill-opacity="0" stroke="#e70101" stroke-width="1" stroke-opacity="1"></use></g></g><g><use xlink:href="#a33VX9YA4u" opacity="1" fill="#b0b0b0" fill-opacity="1"></use><g><use xlink:href="#a33VX9YA4u" opacity="1" fill-opacity="0" stroke="#b0b0b0" stroke-width="1" stroke-opacity="1"></use></g></g><g><use xlink:href="#c5VKN3rIUA" opacity="1" fill="#b0b0b0" fill-opacity="1"></use><g><use xlink:href="#c5VKN3rIUA" opacity="1" fill-opacity="0" stroke="#b0b0b0" stroke-width="1" stroke-opacity="1"></use></g></g><g><use xlink:href="#dhIyMss7a" opacity="1" fill="#b0b0b0" fill-opacity="1"></use><g><use xlink:href="#dhIyMss7a" opacity="1" fill-opacity="0" stroke="#b0b0b0" stroke-width="1" stroke-opacity="1"></use></g></g><g><use xlink:href="#gvaqSQwnx" opacity="1" fill="#b0b0b0" fill-opacity="1"></use><g><use xlink:href="#gvaqSQwnx" opacity="1" fill-opacity="0" stroke="#b0b0b0" stroke-width="1" stroke-opacity="1"></use></g></g><g><use xlink:href="#aCfXCTw7q" opacity="1" fill="#b0b0b0" fill-opacity="1"></use><g><use xlink:href="#aCfXCTw7q" opacity="1" fill-opacity="0" stroke="#b0b0b0" stroke-width="1" stroke-opacity="1"></use></g></g><g><use xlink:href="#d1pIPGH5j2" opacity="1" fill="#b0b0b0" fill-opacity="1"></use><g><use xlink:href="#d1pIPGH5j2" opacity="1" fill-opacity="0" stroke="#b0b0b0" stroke-width="1" stroke-opacity="1"></use></g></g></g></g></g></svg>